<!DOCTYPE svg PUBLIC "-//W3C//DTD SVG 20010904//EN" "http://www.w3.org/TR/2001/REC-SVG-20010904/DTD/svg10.dtd">
<svg version="1.0" xmlns="http://www.w3.org/2000/svg" width="1200px" height="1200px" viewBox="0 0 12000 12000" preserveAspectRatio="xMidYMid meet">
<g id="layer101" fill="#000000" stroke="none">
 <path d="M3115 11581 c-225 -224 -1016 -1013 -1757 -1751 l-1348 -1343 0 -2492 0 -2492 598 -593 c328 -325 1119 -1114 1757 -1751 l1161 -1159 2474 0 2475 0 650 647 c358 356 1151 1146 1763 1756 l1112 1109 0 2487 0 2487 -872 867 c-480 476 -1273 1265 -1762 1752 l-890 885 -2475 0 -2476 0 -410 -409z m5934 -1394 c493 -491 1165 -1161 1494 -1487 l597 -594 0 -2106 0 -2105 -1082 -1081 c-596 -594 -1272 -1267 -1503 -1497 l-420 -417 -2134 0 -2135 0 -800 798 c-441 439 -1117 1113 -1503 1497 l-703 698 0 2101 0 2101 363 363 c199 199 785 783 1302 1297 517 515 1022 1018 1122 1118 l183 181 32 -18 c18 -11 96 -61 173 -111 394 -259 590 -454 684 -679 86 -207 82 -474 -9 -760 -117 -365 -349 -763 -919 -1577 l-186 -267 -130 -78 c-496 -296 -800 -556 -993 -848 -114 -173 -224 -448 -287 -716 -15 -63 -35 -148 -46 -188 -10 -40 -19 -81 -19 -92 0 -12 -12 -24 -32 -34 -18 -8 -87 -38 -153 -66 -66 -29 -124 -56 -130 -60 -5 -4 -41 -24 -80 -45 -63 -33 -242 -149 -255 -164 -3 -3 -36 -31 -75 -62 -93 -75 -250 -234 -300 -303 -78 -110 -145 -261 -145 -326 0 -16 -5 -53 -11 -81 -11 -52 -4 -149 21 -281 11 -57 85 -229 103 -236 4 -2 7 -8 7 -14 0 -5 9 -22 20 -36 11 -15 31 -40 43 -57 24 -33 171 -182 202 -205 11 -8 39 -30 61 -47 23 -18 45 -33 50 -33 4 0 15 -6 23 -14 24 -22 212 -116 231 -116 9 0 22 -6 28 -13 9 -8 53 -12 145 -12 153 0 178 10 238 92 33 46 34 51 34 138 0 81 -4 97 -34 161 -19 39 -43 77 -54 83 -19 13 -20 11 -14 -41 10 -82 -7 -165 -39 -195 -38 -35 -65 -43 -144 -43 -79 0 -157 26 -238 78 -115 75 -185 164 -229 291 -64 181 -11 449 108 554 143 127 368 144 704 52 33 -9 80 -21 104 -26 24 -5 49 -13 55 -18 15 -11 148 -57 222 -75 191 -47 447 -120 474 -135 9 -5 31 -12 50 -16 19 -4 41 -11 50 -16 21 -12 172 -69 183 -69 5 0 23 -6 40 -14 18 -8 63 -28 100 -45 38 -17 71 -31 74 -31 18 0 341 -159 421 -207 30 -19 65 -36 78 -39 13 -3 28 -12 35 -20 6 -8 18 -14 25 -14 8 0 22 -4 32 -10 37 -20 152 -70 163 -70 6 0 25 -6 42 -14 69 -32 205 -64 342 -82 106 -14 313 -13 416 1 134 19 396 94 509 147 25 11 65 29 90 40 25 11 93 44 152 74 59 30 112 54 118 54 7 0 51 -18 98 -41 48 -23 96 -45 107 -49 60 -25 95 -40 145 -59 30 -12 64 -26 75 -31 36 -15 219 -69 275 -80 291 -58 670 -36 875 50 11 5 31 12 44 15 39 12 233 102 316 149 22 12 60 33 85 46 25 14 47 27 50 30 13 13 121 69 295 154 158 77 342 154 580 243 22 9 58 22 80 30 22 9 49 19 60 23 19 7 47 15 150 41 22 6 49 15 60 19 33 15 262 67 365 84 369 61 653 20 774 -111 74 -79 134 -330 105 -438 -5 -22 -14 -60 -20 -85 -26 -130 -144 -263 -300 -341 -51 -25 -80 -32 -147 -36 -162 -10 -205 30 -204 189 1 48 -3 88 -7 88 -17 0 -58 -67 -79 -131 -45 -134 -15 -252 78 -314 44 -30 47 -30 176 -30 74 0 141 5 155 11 13 6 51 23 84 38 214 98 448 291 545 451 13 22 26 42 30 45 9 8 58 113 79 171 34 90 50 250 36 355 -12 90 -43 225 -54 234 -3 3 -17 28 -30 55 -109 223 -463 526 -822 705 -35 17 -72 36 -81 41 -10 5 -22 9 -27 9 -5 0 -42 15 -83 34 -88 41 -314 117 -418 141 -119 27 -109 14 -150 176 -45 175 -99 338 -145 437 -19 41 -35 75 -35 78 0 8 -96 162 -124 199 -49 65 -119 137 -255 265 -9 8 -75 61 -146 118 -72 57 -139 111 -150 120 -11 9 -60 49 -108 87 -48 39 -156 140 -240 225 -151 154 -180 185 -269 290 l-46 55 -7 170 c-13 344 -41 577 -106 885 -125 596 -132 647 -133 960 0 256 15 435 40 504 15 40 29 95 60 238 9 37 30 96 47 130 18 35 38 78 45 96 8 17 20 32 28 32 8 0 17 7 20 15 4 8 12 15 20 15 8 0 14 4 14 9 0 5 10 13 23 17 12 4 24 9 27 13 3 3 21 13 40 22 19 8 80 39 135 67 55 28 106 51 114 51 7 1 417 -401 910 -892z m-3159 -2700 c43 -19 83 -61 100 -107 8 -19 28 -67 47 -107 79 -171 109 -318 99 -479 -8 -131 -37 -235 -142 -511 -48 -125 -147 -388 -221 -583 -73 -195 -138 -359 -144 -365 -6 -6 -14 -6 -23 0 -88 67 -262 165 -416 234 -43 19 -220 77 -365 120 -163 47 -392 94 -625 126 -63 9 -115 17 -116 18 -1 1 19 34 45 73 142 216 218 335 305 479 118 196 108 179 185 294 96 143 230 306 386 470 66 69 217 179 310 226 22 11 42 23 43 28 2 4 9 7 15 7 7 0 23 6 37 13 37 19 109 45 160 57 25 6 59 15 75 20 44 13 204 5 245 -13z m1966 -615 c294 -218 573 -492 708 -697 49 -73 166 -284 166 -297 0 -4 -125 -9 -277 -11 -153 -3 -343 -10 -423 -15 -80 -5 -146 -9 -148 -7 -3 3 -41 266 -81 565 -17 124 -36 261 -42 305 -7 44 -14 115 -16 158 -5 92 -12 92 113 -1z m-3821 -90 c-32 -78 -137 -313 -209 -465 -31 -65 -86 -189 -123 -275 -36 -86 -69 -160 -72 -164 -3 -3 -189 -8 -412 -10 l-407 -3 28 35 c51 65 284 303 388 397 124 112 288 236 437 330 107 69 387 224 392 219 2 -1 -8 -30 -22 -64z m3040 -717 c14 -30 37 -81 51 -112 15 -32 44 -95 65 -141 26 -56 34 -84 26 -86 -7 -2 -37 -11 -67 -20 -67 -19 -172 -46 -180 -46 -6 0 -3 23 41 270 11 63 23 132 26 153 3 20 7 37 9 37 2 0 15 -25 29 -55z"/>
 </g>

</svg>